<svg xmlns="http://www.w3.org/2000/svg" version="1.1" xmlns:xlink="http://www.w3.org/1999/xlink" xmlns:svgjs="http://svgjs.dev/svgjs" width="1500" height="1500" viewBox="0 0 1500 1500"><rect width="1500" height="1500" fill="#ffffff"></rect><g transform="matrix(0.6666666666666666,0,0,0.6666666666666666,249.67655085307894,293.03697705802966)"><svg viewBox="0 0 270 247" data-background-color="#f2f0e4" preserveAspectRatio="xMidYMid meet" height="1372" width="1500" xmlns="http://www.w3.org/2000/svg" xmlns:xlink="http://www.w3.org/1999/xlink"><g id="tight-bounds" transform="matrix(1,0,0,1,0.08733126966868099,-0.09999999999999432)"><svg viewBox="0 0 269.82533746066264 247.2" height="247.2" width="269.82533746066264"><g><svg viewBox="0 0 395.52 362.35494012586594" height="247.2" width="269.82533746066264"><g transform="matrix(1,0,0,1,0,222.51864107034237)"><svg viewBox="0 0 395.52 139.83629905552357" height="139.83629905552357" width="395.52"><g id="textblocktransform"><svg viewBox="0 0 395.52 139.83629905552357" height="139.83629905552357" width="395.52" id="textblock"><g><svg viewBox="0 0 395.52 81.08505532906233" height="81.08505532906233" width="395.52"><g transform="matrix(1,0,0,1,0,0)"><svg width="395.52" viewBox="1.9 -35 171.69 35.2" height="81.08505532906233" data-palette-color="#3d2f28"><path d="M4.55-33.95L1.9-34.25 1.95-35 8.55-35 20.5-9.65 32.25-35 38.85-35Q38.85-34.9 38.9-34.65 38.95-34.4 38.9-34.25L38.9-34.25 36.25-33.95Q35.75-33.9 35.65-33.3L35.65-33.3 35.65-0.95 39.35-0.75Q39.35-0.7 39.3 0L39.3 0 29.25 0.05 29.3-0.65 31.9-1Q32.4-1.05 32.5-1.6L32.5-1.6 32.5-33.2 21.1-8.55 20.1-6.55 18.95-6.55 6.3-33.25 6.3-1.05 12-0.75Q12-0.7 11.95 0L11.95 0 1.9 0.05 1.95-0.65 4.55-1Q5.05-1.05 5.15-1.65L5.15-1.65 5.15-33.3Q5.05-33.9 4.55-33.95L4.55-33.95ZM52.7 0L42.65 0.05 42.7-0.65 45.3-1Q45.8-1.05 45.9-1.65L45.9-1.65 45.95-1.65 45.95-33.25 45.9-33.25Q45.8-33.9 45.3-33.95L45.3-33.95 42.7-34.2 42.65-34.95 52.7-35Q52.7-34.95 52.75-34.25L52.75-34.25 49.35-33.95 49.35-0.95 52.75-0.75Q52.75-0.7 52.7 0L52.7 0ZM59.3-33.95L56.65-34.25 56.7-35 68.84-35Q74-35 76.8-32.75 79.59-30.5 79.59-26.05L79.59-26.05Q79.59-23.15 77.37-20 75.15-16.85 73.2-15.95L73.2-15.95 82.45-0.9 84.9-0.75Q84.9-0.7 84.84 0L84.84 0 79.4 0.05 69.9-15.35 63.25-15.35 63.25-0.95 66.75-0.75Q66.75-0.7 66.7 0L66.7 0 56.65 0.05 56.7-0.65 59.3-1Q59.65-1.05 59.84-1.45L59.84-1.45 59.84-33.45Q59.7-33.9 59.3-33.95L59.3-33.95ZM68.59-34.25L68.59-34.25 63.25-34.25 63.25-16.1 71.8-16.1Q74.4-19.05 75.3-21.33 76.2-23.6 76.2-25.75L76.2-25.75Q76.2-29.95 74.25-32.1 72.3-34.25 68.59-34.25ZM96.69 0L86.64 0.05 86.69-0.65 89.29-1Q89.64-1.05 89.89-1.65L89.89-1.65 100.69-35 103.99-35 115.49-0.95 118.94-0.75Q118.94-0.7 118.89 0L118.89 0 108.89 0.05Q108.89-0.4 108.94-0.65L108.94-0.65 111.54-1Q111.94-1.05 111.94-1.6L111.94-1.6 109.19-9.75 93.59-9.75 90.94-1.05 96.74-0.75Q96.74-0.7 96.69 0L96.69 0ZM108.84-10.75L101.04-34.05 93.89-10.75 108.84-10.75ZM136.99-14.4L145.99-14.45Q145.99-14.4 146.04-13.7L146.04-13.7 144.04-13.45 144.04-1.05Q143.19-0.75 139.52-0.28 135.84 0.2 133.54 0.2 131.24 0.2 129.54-0.13 127.84-0.45 125.94-1.5 124.04-2.55 122.72-4.28 121.39-6 120.49-9 119.59-12 119.59-16L119.59-16Q119.59-24.85 123.64-29.8L123.64-29.8Q127.89-35 135.24-35L135.24-35Q137.49-35 140.12-34.58 142.74-34.15 143.84-33.75L143.84-33.75 144.44-26.55 143.49-26.2 142.84-31.55Q138.79-34.3 135.24-34.3L135.24-34.3Q129.59-34.3 126.29-29.6 122.99-24.9 122.99-16L122.99-16Q122.99-5.2 127.94-2.05L127.94-2.05Q129.44-1.1 130.72-0.83 131.99-0.55 134.29-0.55 136.59-0.55 141.04-1.2L141.04-1.2 141.24-12.7Q141.24-13.3 140.64-13.4L140.64-13.4 137.04-13.65Q136.99-13.95 136.99-14.4L136.99-14.4ZM152.74-33.95L150.09-34.25 150.14-35 171.54-35 171.49-34.85 172.14-27.8 171.14-27.4 170.34-34 156.74-34 156.74-17.85 168.69-17.85Q168.94-17.8 169.14-17.98 169.34-18.15 169.34-18.45L169.34-18.45 169.54-21.9 170.34-22 170.34-13.45Q170.29-13.45 169.59-13.4L169.59-13.4 169.39-16.85 156.74-16.85 156.74-1 171.69-1 172.64-9 173.59-8.75 172.84 0 160.14 0 150.09 0.05 150.14-0.65 152.74-1Q153.24-1.05 153.34-1.65L153.34-1.65 153.34-33.3Q153.24-33.9 152.74-33.95L152.74-33.95Z" opacity="1" transform="matrix(1,0,0,1,0,0)" fill="#000000" class="wordmark-text-0" data-fill-palette-color="primary" id="text-0"></path></svg></g></svg></g><g transform="matrix(1,0,0,1,41.52959999999999,100.22729085092604)"><svg viewBox="0 0 312.4608 39.60900820459753" height="39.60900820459753" width="312.4608"><g transform="matrix(1,0,0,1,0,0)"><svg width="312.4608" viewBox="-3.15 -52.9 676.37 85.75" height="39.60900820459753" data-palette-color="#3d2f28"><path d="M39.95-5.45Q40.15-4.95 40.15-4.5L40.15-4.5Q40.15-3.35 39.1-2.23 38.05-1.1 36.58-0.4 35.1 0.3 33.95 0.3L33.95 0.3Q31.35 0.3 30.18-2.88 29-6.05 28.35-10.6L28.35-10.6Q28.2-11.65 27.8-11.98 27.4-12.3 26.35-12.3L26.35-12.3 19.45-12.25Q17.95-12.25 15.75-12.35L15.75-12.35 15.15-11.4Q12.55-7.2 10.83-4.88 9.1-2.55 6.95-1 4.8 0.55 2.15 0.55L2.15 0.55Q0.3 0.55-0.88-0.15-2.05-0.85-2.6-1.85-3.15-2.85-3.15-3.75L-3.15-3.75Q-3.15-4.7-2.65-5.48-2.15-6.25-1.5-6.6L-1.5-6.6Q-1.5-4.45-0.48-3.13 0.55-1.8 2.5-1.8L2.5-1.8Q5.2-1.8 7.65-4.42 10.1-7.05 13.5-12.55L13.5-12.55Q10.85-12.85 10.7-13.55L10.7-13.55Q10.6-13.8 10.83-14.4 11.05-15 11.35-15.3L11.35-15.3Q12.1-15 14.8-14.65L14.8-14.65Q15.4-15.7 16.4-17.3L16.4-17.3Q25-31.55 27.5-35.5L27.5-35.5Q28.05-36.4 28.55-36.7 29.05-37 29.65-37L29.65-37Q30.45-37 31.3-36.75L31.3-36.75Q30.25-34.9 30.15-30.5L30.15-30.5 30.1-28.05Q30.1-22.95 30.5-16.7L30.5-16.7Q30.95-9.6 31.88-5.98 32.8-2.35 34.95-2.35L34.95-2.35Q36-2.35 37.38-3.23 38.75-4.1 39.95-5.45L39.95-5.45ZM22.85-14.15Q24.2-14.15 27.95-14.3L27.95-14.3Q27.85-18 27.78-22.48 27.7-26.95 27.65-30.25L27.65-30.25 27.65-31.9Q21.9-22.25 17.05-14.4L17.05-14.4Q20.3-14.15 22.85-14.15L22.85-14.15ZM48.4 0.35Q46.65 0.35 45.27-0.83 43.9-2 43.9-4.3L43.9-4.3Q44.65-6.7 46.5-14.95L46.5-14.95Q47.4-19 47.6-19.8L47.6-19.8Q48.25-20.9 49.4-20.9L49.4-20.9Q50.15-20.9 50.15-20.4L50.15-20.4Q49.8-19.15 49.17-16.43 48.55-13.7 48.2-12.15L48.2-12.15Q46.85-5.95 46.35-4.2L46.35-4.2Q46.35-3.05 47.02-2.43 47.7-1.8 48.8-1.8L48.8-1.8Q51.3-1.8 53.82-3.58 56.35-5.35 58.27-7.7 60.2-10.05 61.15-11.75L61.15-11.75Q61.45-11.65 61.55-11.43 61.65-11.2 61.65-10.65L61.65-10.65Q61.65-9.9 61.15-9.1L61.15-9.1Q58.45-4.85 55.1-2.25 51.75 0.35 48.4 0.35L48.4 0.35ZM50.7-27.15Q50-27.15 49.6-27.63 49.2-28.1 49.2-28.85L49.2-28.85Q49.2-29.85 49.85-30.68 50.5-31.5 51.5-31.5L51.5-31.5Q52.3-31.5 52.67-31 53.05-30.5 53.05-29.8L53.05-29.8Q53.05-28.8 52.37-27.98 51.7-27.15 50.7-27.15L50.7-27.15ZM95.99-10.25Q96.74-9.8 96.74-8.75L96.74-8.75Q96.74-8.15 96.52-7.7 96.29-7.25 95.89-6.75L95.89-6.75Q93.44-3.8 89.49-2.23 85.54-0.65 82.12-0.18 78.69 0.3 76.54 0.3L76.54 0.3Q75.24 0.3 74.74 0.05 74.24-0.2 74.24-0.95L74.24-0.95Q74.24-1.35 74.39-1.8L74.39-1.8Q75.79-1.55 76.34-1.55L76.34-1.55Q78.84-1.55 80.49-3.43 82.14-5.3 83.07-7.93 83.99-10.55 84.94-14.4L84.94-14.4Q85.09-14.85 85.29-15.75L85.29-15.75Q85.29-16.4 84.27-17.35 83.24-18.3 82.54-18.3L82.54-18.3Q81.89-18.3 80.49-17.48 79.09-16.65 77.77-15.08 76.44-13.5 75.84-11.45L75.84-11.45Q74.39-6.35 73.37-1.95 72.34 2.45 71.09 8.35L71.09 8.35Q68.49 20.55 66.49 28.35L66.49 28.35Q66.14 29.7 65.59 30.38 65.04 31.05 64.29 31.33 63.54 31.6 61.84 31.95L61.84 31.95Q59.69 32.35 57.94 32.85L57.94 32.85 57.39 32.6Q60.19 31.35 61.49 30.2 62.79 29.05 63.44 27.38 64.09 25.7 65.09 21.7L65.09 21.7Q71.49-3.45 76.49-24.55L76.49-24.55Q76.59-25 76.79-25.18 76.99-25.35 77.29-25.45L77.29-25.45Q77.79-25.65 78.49-25.98 79.19-26.3 79.44-26.35L79.44-26.35Q79.59-26.3 79.89-25.9L79.89-25.9Q79.79-25.55 79.64-25.35L79.64-25.35Q79.24-24.45 77.64-18.9L77.64-18.9Q77.19-17.4 77.09-17.05L77.09-17.05Q78.44-18.6 80.32-19.8 82.19-21 83.29-21L83.29-21Q84.19-21 85.39-20.18 86.59-19.35 87.44-18.2 88.29-17.05 88.29-16.1L88.29-16.1 87.69-13.8Q86.94-10.75 86.27-8.7 85.59-6.65 84.29-4.75 82.99-2.85 80.99-1.7L80.99-1.7Q83.94-2.1 86.24-2.9 88.54-3.7 90.94-5.43 93.34-7.15 95.99-10.25L95.99-10.25ZM121.14-17.65Q121.64-17.5 121.64-16.65L121.64-16.65Q121.64-15.4 120.64-14.08 119.64-12.75 117.92-11.9 116.19-11.05 114.14-11.05L114.14-11.05Q111.39-11.05 109.29-12.55L109.29-12.55Q108.99-11.1 108.54-9.6L108.54-9.6Q108.39-9.05 107.89-7.08 107.39-5.1 107.19-3.55L107.19-3.55Q106.84-2.75 105.79-1.83 104.74-0.9 103.29-0.25 101.84 0.4 100.44 0.4L100.44 0.4Q98.89 0.4 97.44-0.4 95.99-1.2 95.07-2.55 94.14-3.9 94.14-5.55L94.14-5.55Q94.84-7.65 95.29-9.5 95.74-11.35 96.14-13.25L96.14-13.25 96.64-15.75Q96.89-16.9 97.99-18.03 99.09-19.15 100.67-19.88 102.24-20.6 103.84-20.6L103.84-20.6Q104.44-20.6 105.54-20.4L105.54-20.4Q105.69-21.55 106.07-22 106.44-22.45 107.29-22.45L107.29-22.45Q107.79-22.45 108.44-22.3L108.44-22.3Q108.19-20.9 108.19-19.9L108.19-19.9Q108.19-17 109.94-15 111.69-13 114.69-13L114.69-13Q116.94-13 118.57-14.2 120.19-15.4 121.14-17.65L121.14-17.65ZM104.99-4.4Q105.39-6.4 106.14-8.95L106.14-8.95Q107.14-12.3 107.44-14.35L107.44-14.35Q106.34-15.75 105.94-17.75L105.94-17.75Q105.94-17.95 105.87-18.07 105.79-18.2 105.54-18.25L105.54-18.25Q104.79-18.55 103.84-18.55L103.84-18.55Q101.99-18.55 100.64-17.55 99.29-16.55 98.94-15.15L98.94-15.15Q98.79-14.55 97.84-10.45L97.84-10.45Q97.39-8.05 96.74-5.7L96.74-5.7Q96.74-3.85 97.99-2.83 99.24-1.8 100.64-1.8L100.64-1.8Q101.84-1.8 103.22-2.65 104.59-3.5 104.99-4.4L104.99-4.4ZM154.59-19.25Q154.94-19.1 154.94-18.4L154.94-18.4Q154.94-16.3 152.59-14.93 150.24-13.55 147.14-13.55L147.14-13.55Q143.69-13.55 141.29-15.5L141.29-15.5Q141.94-13.65 141.94-11.2L141.94-11.2Q141.94-8.05 140.84-5.45 139.74-2.85 137.84-1.38 135.94 0.1 133.64 0.1L133.64 0.1Q131.49 0.1 130.26-1.05 129.04-2.2 128.44-3.7L128.44-3.7Q127.29-1.65 125.61-0.65 123.94 0.35 122.39 0.35L122.39 0.35Q120.74 0.35 119.51-0.65 118.29-1.65 117.66-2.85 117.04-4.05 117.04-4.6L117.04-4.6Q117.54-7.35 118.64-11.4 119.74-15.45 120.59-18.2L120.59-18.2Q120.99-19.4 121.49-20.08 121.99-20.75 123.04-20.75L123.04-20.75Q123.79-20.75 124.04-20.15L124.04-20.15Q122.74-17.7 121.39-12.93 120.04-8.15 119.59-4.9L119.59-4.9Q120.34-1.8 122.64-1.8L122.64-1.8Q124.24-1.8 125.86-3.28 127.49-4.75 128.39-8L128.39-8Q128.79-9.6 129.41-12.5 130.04-15.4 130.44-17.55L130.44-17.55Q131.69-17.55 132.16-17.2 132.64-16.85 132.64-16L132.64-16Q132.64-15.05 131.79-11.95L131.79-11.95Q131.04-9.15 130.89-8.3L130.89-8.3Q130.44-6.05 130.44-4.6L130.44-4.6Q130.69-3.75 131.59-2.75 132.49-1.75 133.89-1.75L133.89-1.75Q135.24-1.75 136.56-2.83 137.89-3.9 138.76-6.05 139.64-8.2 139.64-11.15L139.64-11.15Q139.64-13.5 139.16-15.03 138.69-16.55 137.89-18.1L137.89-18.1Q137.44-19 137.39-19.15L137.39-19.15Q137.59-19.65 138.06-20.15 138.54-20.65 138.79-20.65L138.79-20.65Q138.99-20.65 139.34-20.18 139.69-19.7 139.79-19.6L139.79-19.6Q141.09-17.8 142.66-16.57 144.24-15.35 146.94-15.35L146.94-15.35Q149.14-15.35 151.24-16.35 153.34-17.35 154.59-19.25L154.59-19.25ZM171.64-11.95Q172.54-11.8 172.54-10.95L172.54-10.95Q172.54-8.95 169.96-6.28 167.39-3.6 163.89-1.68 160.39 0.25 158.04 0.25L158.04 0.25Q155.79 0.25 154.14-0.93 152.49-2.1 151.61-3.55 150.74-5 150.74-5.7L150.74-5.7Q151.54-8.55 152.49-13.6L152.49-13.6 153.04-16.4Q153.24-17.4 154.49-18.48 155.74-19.55 157.29-20.28 158.84-21 159.79-21L159.79-21Q160.54-21 161.61-20.53 162.69-20.05 163.51-19.05 164.34-18.05 164.34-16.5L164.34-16.5Q164.34-14.7 163.14-13.1 161.94-11.5 159.59-10.5 157.24-9.5 153.94-9.5L153.94-9.5 153.24-6.15Q153.24-5.7 153.76-4.65 154.29-3.6 155.46-2.75 156.64-1.9 158.44-1.9L158.44-1.9Q160.84-1.9 163.49-3.48 166.14-5.05 168.34-7.4 170.54-9.75 171.64-11.95L171.64-11.95ZM159.39-18.95Q158.79-18.95 157.84-18.45 156.89-17.95 156.11-17.2 155.34-16.45 155.19-15.8L155.19-15.8Q154.69-13.55 154.29-11.25L154.29-11.25Q158.14-11.4 160.09-12.78 162.04-14.15 162.04-15.9L162.04-15.9Q162.04-17.15 161.14-18.05 160.24-18.95 159.39-18.95L159.39-18.95ZM192.13-17.85Q192.33-17.8 192.48-17.55 192.63-17.3 192.63-17L192.63-17Q192.63-15.95 191.66-14.98 190.68-14 189.11-13.4 187.53-12.8 185.93-12.8L185.93-12.8Q183.43-12.8 181.66-14.1 179.88-15.4 179.38-17.75L179.38-17.75Q177.13-17.5 175.26-14.9 173.38-12.3 172.63-9.25L172.63-9.25Q172.53-8.75 171.88-6.18 171.23-3.6 170.63-0.1L170.63-0.1Q170.58 0.05 170.51 0.13 170.43 0.2 170.18 0.2L170.18 0.2Q169.83 0.2 169.13-0.1 168.43-0.4 168.43-0.75L168.43-0.75Q168.43-1.45 168.68-2.6L168.68-2.6Q171.73-16.7 172.63-20.05L172.63-20.05Q172.73-20.5 172.86-20.65 172.98-20.8 173.28-20.8L173.28-20.8Q173.48-20.8 174.13-20.48 174.78-20.15 175.18-19.8L175.18-19.8 174.28-16.9 173.98-15.9Q175.13-17.7 176.63-18.8 178.13-19.9 179.83-19.9L179.83-19.9Q180.33-19.9 180.83-19.8 181.33-19.7 181.53-19.55L181.53-19.55Q181.53-17.1 182.81-15.93 184.08-14.75 186.38-14.75L186.38-14.75Q188.43-14.75 189.78-15.45 191.13-16.15 192.13-17.85L192.13-17.85ZM209.03-11.95Q209.93-11.8 209.93-10.95L209.93-10.95Q209.93-8.95 207.36-6.28 204.78-3.6 201.28-1.68 197.78 0.25 195.43 0.25L195.43 0.25Q193.18 0.25 191.53-0.93 189.88-2.1 189.01-3.55 188.13-5 188.13-5.7L188.13-5.7Q188.93-8.55 189.88-13.6L189.88-13.6 190.43-16.4Q190.63-17.4 191.88-18.48 193.13-19.55 194.68-20.28 196.23-21 197.18-21L197.18-21Q197.93-21 199.01-20.53 200.08-20.05 200.91-19.05 201.73-18.05 201.73-16.5L201.73-16.5Q201.73-14.7 200.53-13.1 199.33-11.5 196.98-10.5 194.63-9.5 191.33-9.5L191.33-9.5 190.63-6.15Q190.63-5.7 191.16-4.65 191.68-3.6 192.86-2.75 194.03-1.9 195.83-1.9L195.83-1.9Q198.23-1.9 200.88-3.48 203.53-5.05 205.73-7.4 207.93-9.75 209.03-11.95L209.03-11.95ZM196.78-18.95Q196.18-18.95 195.23-18.45 194.28-17.95 193.51-17.2 192.73-16.45 192.58-15.8L192.58-15.8Q192.08-13.55 191.68-11.25L191.68-11.25Q195.53-11.4 197.48-12.78 199.43-14.15 199.43-15.9L199.43-15.9Q199.43-17.15 198.53-18.05 197.63-18.95 196.78-18.95L196.78-18.95ZM242.88-52.9Q245.78-52.9 247.65-51.88 249.53-50.85 249.98-49.2L249.98-49.2 249.98-48.75Q247.13-50.15 244.18-50.15L244.18-50.15Q238.13-50.15 233.5-44.5 228.88-38.85 225.48-26.7L225.48-26.7Q224.03-21.55 222.48-14.48 220.93-7.4 220.93-4.7L220.93-4.7Q220.93-3.45 221.38-2.78 221.83-2.1 222.98-2.1L222.98-2.1Q224.38-2.1 226.13-3.08 227.88-4.05 229.6-6 231.33-7.95 232.63-10.7L232.63-10.7Q233.33-10.7 233.33-9.5L233.33-9.5Q233.33-7.65 231.63-5.35 229.93-3.05 227.43-1.4 224.93 0.25 222.63 0.25L222.63 0.25Q221.03 0.25 220.03-0.6 219.03-1.45 218.63-3L218.63-3Q217.48-1.55 215.8-0.58 214.13 0.4 212.63 0.4L212.63 0.4Q211.28 0.4 209.93-0.45 208.58-1.3 207.73-2.58 206.88-3.85 206.88-5.05L206.88-5.05Q208.13-9.25 209.48-15.8L209.48-15.8Q209.68-16.9 210.9-18.15 212.13-19.4 213.88-20.23 215.63-21.05 217.28-21.05L217.28-21.05Q219.18-21.05 221.18-19.95L221.18-19.95Q222.13-23.8 223.13-27.3L223.13-27.3Q225.73-36.3 228.58-41.9 231.43-47.5 234.9-50.2 238.38-52.9 242.88-52.9L242.88-52.9ZM218.78-8.15L219.08-9.6Q219.68-13 220.73-17.8L220.73-17.8Q219.03-18.9 217.33-18.9L217.33-18.9Q215.58-18.9 213.98-17.88 212.38-16.85 211.73-15L211.73-15Q211.38-14 210.58-9.9L210.58-9.9Q210.08-7.4 209.53-5.2L209.53-5.2Q209.53-4.05 210.63-2.85 211.73-1.65 212.98-1.65L212.98-1.65Q213.98-1.65 215.15-2.43 216.33-3.2 217.35-4.67 218.38-6.15 218.78-8.15L218.78-8.15ZM248.42 0.35Q246.67 0.35 245.3-0.83 243.92-2 243.92-4.3L243.92-4.3Q244.67-6.7 246.52-14.95L246.52-14.95Q247.42-19 247.62-19.8L247.62-19.8Q248.27-20.9 249.42-20.9L249.42-20.9Q250.17-20.9 250.17-20.4L250.17-20.4Q249.82-19.15 249.2-16.43 248.57-13.7 248.22-12.15L248.22-12.15Q246.87-5.95 246.37-4.2L246.37-4.2Q246.37-3.05 247.05-2.43 247.72-1.8 248.82-1.8L248.82-1.8Q251.32-1.8 253.85-3.58 256.37-5.35 258.3-7.7 260.22-10.05 261.17-11.75L261.17-11.75Q261.47-11.65 261.57-11.43 261.67-11.2 261.67-10.65L261.67-10.65Q261.67-9.9 261.17-9.1L261.17-9.1Q258.47-4.85 255.12-2.25 251.77 0.35 248.42 0.35L248.42 0.35ZM250.72-27.15Q250.02-27.15 249.62-27.63 249.22-28.1 249.22-28.85L249.22-28.85Q249.22-29.85 249.87-30.68 250.52-31.5 251.52-31.5L251.52-31.5Q252.32-31.5 252.7-31 253.07-30.5 253.07-29.8L253.07-29.8Q253.07-28.8 252.4-27.98 251.72-27.15 250.72-27.15L250.72-27.15ZM293.72-11.55Q293.77-10 291.85-7.15 289.92-4.3 287.12-2.1 284.32 0.1 281.62 0.1L281.62 0.1Q279.72 0.1 278.5-1.13 277.27-2.35 277.27-4.85L277.27-4.85Q277.27-6.9 277.95-9.47 278.62-12.05 279.77-15.6L279.77-15.6Q280.12-16.55 280.42-17.6L280.42-17.6Q280.42-17.75 280.22-17.88 280.02-18 279.82-18L279.82-18Q279.17-18 277.25-16.13 275.32-14.25 273.35-11.83 271.37-9.4 270.72-8.15L270.72-8.15Q270.22-6.6 269.07-1.65L269.07-1.65Q268.87-0.8 268.75-0.5 268.62-0.2 268.32-0.2L268.32-0.2Q267.87-0.2 267.3-0.75 266.72-1.3 266.72-1.85L266.72-1.85Q266.72-2.4 267.22-4.25L267.22-4.25Q269.32-11.95 270.62-17.6L270.62-17.6Q270.32-18 269.87-18L269.87-18Q269.12-18 267.32-16.15 265.52-14.3 263.57-11.48 261.62-8.65 260.37-5.9L260.37-5.9Q259.62-3.45 259.02-0.25L259.02-0.25Q258.52-0.25 257.72-0.6 256.92-0.95 256.92-1.3L256.92-1.3Q256.92-1.7 257.42-3.55L257.42-3.55 261.67-20.1Q261.77-20.55 261.92-20.75 262.07-20.95 262.37-20.95L262.37-20.95Q262.67-20.95 263.4-20.65 264.12-20.35 264.32-20.15L264.32-20.15 263.87-18.55Q263.72-17.95 263.2-16.07 262.67-14.2 262.22-12.2L262.22-12.2Q263.77-14.9 265.45-16.68 267.12-18.45 268.52-19.28 269.92-20.1 270.67-20.1L270.67-20.1Q271.22-20.1 272.07-19.5 272.92-18.9 272.92-18.5L272.92-18.5Q272.47-15.75 271.62-12.3L271.62-12.3Q273.67-15.1 276.52-17.88 279.37-20.65 280.87-20.65L280.87-20.65Q281.57-20.65 282.37-20.1 283.17-19.55 283.22-18.8L283.22-18.8Q281.62-13.85 280.75-10.65 279.87-7.45 279.87-4.9L279.87-4.9Q279.87-3.4 280.37-2.73 280.87-2.05 282.17-2.05L282.17-2.05Q285.22-2.05 288.07-5.38 290.92-8.7 292.42-13.2L292.42-13.2Q292.97-13.2 293.35-12.7 293.72-12.2 293.72-11.55L293.72-11.55ZM318.82-11.55Q319.47-11.55 319.47-10.25L319.47-10.25Q319.47-7.95 317.44-5.4 315.42-2.85 312.54-1.13 309.67 0.6 307.27 0.6L307.27 0.6Q305.32 0.6 304.27-0.6 303.22-1.8 303.02-3.7L303.02-3.7Q301.77-1.9 299.87-0.75 297.97 0.4 296.47 0.4L296.47 0.4Q295.17 0.4 293.89-0.48 292.62-1.35 291.82-2.63 291.02-3.9 290.97-5.05L290.97-5.05 293.42-15.15Q293.72-16.35 294.94-17.73 296.17-19.1 297.92-20 299.67-20.9 301.47-20.9L301.47-20.9Q303.77-20.9 305.52-19.35L305.52-19.35Q305.97-20.55 306.19-20.85 306.42-21.15 306.87-21.2L306.87-21.2 309.32-21.45 309.47-21.35Q308.47-20.55 308.02-18.85L308.02-18.85Q306.47-13.05 305.89-10.3 305.32-7.55 305.32-5.45L305.32-5.45Q305.32-3.35 305.87-2.38 306.42-1.4 307.72-1.4L307.72-1.4Q309.32-1.4 311.54-2.7 313.77-4 315.77-6.33 317.77-8.65 318.82-11.55L318.82-11.55ZM296.67-1.95Q297.52-1.95 298.74-2.55 299.97-3.15 301.04-4.28 302.12-5.4 302.52-6.85L302.52-6.85 303.47-10.95Q303.67-11.95 304.17-14.18 304.67-16.4 304.97-17.6L304.97-17.6Q303.57-19 301.57-19L301.57-19Q300.02-19 298.77-18.18 297.52-17.35 296.72-16.18 295.92-15 295.72-14.1L295.72-14.1 293.72-5.2Q293.82-3.95 294.72-2.95 295.62-1.95 296.67-1.95L296.67-1.95ZM332.67-22.75Q333.27-22.15 333.87-21.75L333.87-21.75Q334.37-21.35 334.54-21.13 334.72-20.9 334.72-20.5L334.72-20.5Q334.72-20.1 334.52-19.5L334.52-19.5Q333.52-15.65 331.87-8.45L331.87-8.45Q330.77-3.55 329.87-0.05L329.87-0.05Q327.27 10.5 324.54 16.95 321.82 23.4 317.74 26.83 313.67 30.25 307.57 30.25L307.57 30.25Q303.57 30.25 300.82 28.88 298.07 27.5 296.77 25.4 295.47 23.3 295.47 21.1L295.47 21.1Q295.47 20.6 295.57 20.28 295.67 19.95 296.07 19.3L296.07 19.3Q299.02 27.35 307.67 27.35L307.67 27.35Q313.07 27.35 316.67 24.18 320.27 21 322.72 15.23 325.17 9.45 327.57 0L327.57 0 327.82-1Q327.92-1.4 328.02-1.75 328.12-2.1 328.17-2.45L328.17-2.45Q326.77-1.1 324.92-0.35 323.07 0.4 321.82 0.4L321.82 0.4Q320.52 0.4 319.29-0.45 318.07-1.3 317.32-2.58 316.57-3.85 316.57-5.05L316.57-5.05Q316.87-6.25 317.27-8.1 317.67-9.95 317.87-10.95L317.87-10.95 319.07-16.35Q319.32-17.4 320.67-18.6 322.02-19.8 323.74-20.6 325.47-21.4 326.72-21.4L326.72-21.4Q328.07-21.4 329.37-20.4 330.67-19.4 331.67-17.75L331.67-17.75Q331.97-19.15 332.22-21.05L332.22-21.05 332.47-22.7 332.67-22.75ZM329.17-6.85L331.07-15.1Q330.12-16.95 328.89-18.05 327.67-19.15 326.52-19.15L326.52-19.15Q325.72-19.15 324.57-18.63 323.42-18.1 322.47-17.23 321.52-16.35 321.27-15.3L321.27-15.3Q320.92-13.8 319.97-8.6L319.97-8.6 319.37-5.2Q319.37-4 320.24-2.95 321.12-1.9 322.27-1.9L322.27-1.9Q323.12-1.9 324.67-2.5 326.22-3.1 327.52-4.23 328.82-5.35 329.17-6.85L329.17-6.85ZM360.31-11.95Q361.21-11.8 361.21-10.95L361.21-10.95Q361.21-8.95 358.64-6.28 356.06-3.6 352.56-1.68 349.06 0.25 346.71 0.25L346.71 0.25Q344.46 0.25 342.81-0.93 341.16-2.1 340.29-3.55 339.41-5 339.41-5.7L339.41-5.7Q340.21-8.55 341.16-13.6L341.16-13.6 341.71-16.4Q341.91-17.4 343.16-18.48 344.41-19.55 345.96-20.28 347.51-21 348.46-21L348.46-21Q349.21-21 350.29-20.53 351.36-20.05 352.19-19.05 353.01-18.05 353.01-16.5L353.01-16.5Q353.01-14.7 351.81-13.1 350.61-11.5 348.26-10.5 345.91-9.5 342.61-9.5L342.61-9.5 341.91-6.15Q341.91-5.7 342.44-4.65 342.96-3.6 344.14-2.75 345.31-1.9 347.11-1.9L347.11-1.9Q349.51-1.9 352.16-3.48 354.81-5.05 357.01-7.4 359.21-9.75 360.31-11.95L360.31-11.95ZM348.06-18.95Q347.46-18.95 346.51-18.45 345.56-17.95 344.79-17.2 344.01-16.45 343.86-15.8L343.86-15.8Q343.36-13.55 342.96-11.25L342.96-11.25Q346.81-11.4 348.76-12.78 350.71-14.15 350.71-15.9L350.71-15.9Q350.71-17.15 349.81-18.05 348.91-18.95 348.06-18.95L348.06-18.95ZM390.41-8.3Q390.66-7.95 390.66-7.45L390.66-7.45Q390.66-7.05 390.51-6.75 390.36-6.45 390.01-6L390.01-6Q388.71-4.45 386.38-2.93 384.06-1.4 381.51-0.45 378.96 0.5 377.06 0.5L377.06 0.5Q374.91 0.5 373.48-0.83 372.06-2.15 372.06-4.8L372.06-4.8Q372.06-8.15 374.46-17.4L374.46-17.4 369.16-17.2Q369.06-17.25 368.88-17.38 368.71-17.5 368.66-17.6L368.66-17.6Q368.81-17.85 369.21-18.6 369.61-19.35 369.91-19.65L369.91-19.65 375.06-19.6Q376.71-25.7 378.86-32.15L378.86-32.15Q379.76-32.85 381.16-33.68 382.56-34.5 382.86-34.5L382.86-34.5Q383.31-34.3 383.41-33.95L383.41-33.95Q382.51-33.6 382.01-33.02 381.51-32.45 381.01-31.15L381.01-31.15Q379.56-27.45 377.51-19.6L377.51-19.6 390.26-19.55 390.31-18.75Q390.31-18.35 390.16-18.2 390.01-18.05 389.46-18L389.46-18Q388.76-17.95 376.96-17.5L376.96-17.5Q374.66-8.1 374.66-4.95L374.66-4.95Q374.66-3.2 375.51-2.38 376.36-1.55 378.11-1.55L378.11-1.55Q383.21-1.55 390.41-8.3L390.41-8.3ZM410.85-17.85Q411.06-17.8 411.2-17.55 411.35-17.3 411.35-17L411.35-17Q411.35-15.95 410.38-14.98 409.4-14 407.83-13.4 406.25-12.8 404.65-12.8L404.65-12.8Q402.15-12.8 400.38-14.1 398.6-15.4 398.1-17.75L398.1-17.75Q395.85-17.5 393.98-14.9 392.1-12.3 391.35-9.25L391.35-9.25Q391.25-8.75 390.6-6.18 389.95-3.6 389.35-0.1L389.35-0.1Q389.31 0.05 389.23 0.13 389.15 0.2 388.9 0.2L388.9 0.2Q388.56 0.2 387.85-0.1 387.15-0.4 387.15-0.75L387.15-0.75Q387.15-1.45 387.4-2.6L387.4-2.6Q390.45-16.7 391.35-20.05L391.35-20.05Q391.45-20.5 391.58-20.65 391.7-20.8 392-20.8L392-20.8Q392.2-20.8 392.85-20.48 393.5-20.15 393.9-19.8L393.9-19.8 393-16.9 392.7-15.9Q393.85-17.7 395.35-18.8 396.85-19.9 398.56-19.9L398.56-19.9Q399.06-19.9 399.56-19.8 400.06-19.7 400.25-19.55L400.25-19.55Q400.25-17.1 401.53-15.93 402.81-14.75 405.1-14.75L405.1-14.75Q407.15-14.75 408.5-15.45 409.85-16.15 410.85-17.85L410.85-17.85ZM434.95-11.55Q435.6-11.55 435.6-10.25L435.6-10.25Q435.6-7.95 433.58-5.4 431.55-2.85 428.68-1.13 425.8 0.6 423.4 0.6L423.4 0.6Q421.45 0.6 420.4-0.6 419.35-1.8 419.15-3.7L419.15-3.7Q417.9-1.9 416-0.75 414.1 0.4 412.6 0.4L412.6 0.4Q411.3 0.4 410.03-0.48 408.75-1.35 407.95-2.63 407.15-3.9 407.1-5.05L407.1-5.05 409.55-15.15Q409.85-16.35 411.08-17.73 412.3-19.1 414.05-20 415.8-20.9 417.6-20.9L417.6-20.9Q419.9-20.9 421.65-19.35L421.65-19.35Q422.1-20.55 422.33-20.85 422.55-21.15 423-21.2L423-21.2 425.45-21.45 425.6-21.35Q424.6-20.55 424.15-18.85L424.15-18.85Q422.6-13.05 422.03-10.3 421.45-7.55 421.45-5.45L421.45-5.45Q421.45-3.35 422-2.38 422.55-1.4 423.85-1.4L423.85-1.4Q425.45-1.4 427.68-2.7 429.9-4 431.9-6.33 433.9-8.65 434.95-11.55L434.95-11.55ZM412.8-1.95Q413.65-1.95 414.88-2.55 416.1-3.15 417.18-4.28 418.25-5.4 418.65-6.85L418.65-6.85 419.6-10.95Q419.8-11.95 420.3-14.18 420.8-16.4 421.1-17.6L421.1-17.6Q419.7-19 417.7-19L417.7-19Q416.15-19 414.9-18.18 413.65-17.35 412.85-16.18 412.05-15 411.85-14.1L411.85-14.1 409.85-5.2Q409.95-3.95 410.85-2.95 411.75-1.95 412.8-1.95L412.8-1.95ZM456.95-12.2Q457.45-12.2 457.68-11.78 457.9-11.35 457.9-10.8L457.9-10.8Q457.9-9 456-6.25 454.1-3.5 451.18-1.45 448.25 0.6 445.4 0.6L445.4 0.6Q443.6 0.6 442.63-0.3 441.65-1.2 441.65-3.05L441.65-3.05Q441.65-5.6 443.05-9.98 444.45-14.35 445.6-17.25L445.6-17.25Q445.4-17.55 445.2-17.55L445.2-17.55Q445-17.55 444.75-17.4L444.75-17.4Q443.85-16.85 441.8-14.95 439.75-13.05 437.8-10.95 435.85-8.85 435.15-7.55L435.15-7.55Q434.35-5.4 434.15-4.83 433.95-4.25 433.75-2.95L433.75-2.95 433.3-0.7Q433.25-0.55 433.2-0.33 433.15-0.1 433.07-0.05 433 0 432.85 0L432.85 0Q432.4 0 431.68-0.1 430.95-0.2 430.95-0.4L430.95-0.4Q430.95-1 431.3-2.35 431.65-3.7 432-4.8 432.35-5.9 432.55-6.5L432.55-6.5 433-7.9Q434.45-12.9 434.97-15.18 435.5-17.45 436-20.25L436-20.25Q436.05-20.75 436.7-20.75L436.7-20.75Q437.15-20.75 437.72-20.53 438.3-20.3 438.4-19.9L438.4-19.9Q438.2-19 437.68-16.85 437.15-14.7 436.4-12.1L436.4-12.1Q439.3-15.35 442.43-18 445.55-20.65 446.6-20.65L446.6-20.65Q447.1-20.65 447.8-20.15 448.5-19.65 448.65-19.2L448.65-19.2Q447.05-14.9 445.6-9.83 444.15-4.75 444.15-3.15L444.15-3.15Q444.15-1.4 446.15-1.4L446.15-1.4Q449.1-1.4 452.13-4.7 455.15-8 456.95-12.2L456.95-12.2ZM457.75 0.65Q455.35 0.65 453.67-0.5 452-1.65 452-3.15L452-3.15Q452-3.95 452.45-4.45 452.9-4.95 453.45-5.05L453.45-5.05Q454-3.15 455.25-2.2 456.5-1.25 458.3-1.25L458.3-1.25Q460.55-1.25 461.9-2.53 463.25-3.8 463.25-5.5L463.25-5.5Q463.25-6.75 462.52-7.7 461.8-8.65 460.35-9.9L460.35-9.9Q458.75-11.3 457.97-12.33 457.2-13.35 457.2-14.8L457.2-14.8Q457.2-16.35 458.17-17.75 459.15-19.15 460.67-20 462.2-20.85 463.85-20.85L463.85-20.85Q465.3-20.85 466.52-20.23 467.75-19.6 467.75-18.55L467.75-18.55Q467.75-17.55 466.55-16.45L466.55-16.45Q465.9-17.6 464.95-18.23 464-18.85 462.95-18.85L462.95-18.85Q461.35-18.85 460.52-17.68 459.7-16.5 459.7-15.35L459.7-15.35Q459.7-14.4 460.35-13.65 461-12.9 462.4-11.75L462.4-11.75Q464.1-10.3 465-9.15 465.9-8 465.9-6.45L465.9-6.45Q465.9-4.8 464.82-3.15 463.75-1.5 461.87-0.43 460 0.65 457.75 0.65L457.75 0.65ZM501.39-46.8Q501.39-45.65 500.34-45.05L500.34-45.05Q499.34-45.9 497.94-46.35 496.55-46.8 495.09-46.8L495.09-46.8Q492.19-46.8 490.39-44.58 488.59-42.35 486.89-36.8 485.19-31.25 482.5-19.35L482.5-19.35 492.64-19.5Q492.75-19.35 492.75-19.05L492.75-19.05Q492.75-18.5 492.17-18.05 491.59-17.6 491.05-17.6L491.05-17.6 489.94-17.6Q484.39-17.5 482.05-17.4L482.05-17.4Q479.94-7.9 478.19-0.65L478.19-0.65Q478-0.05 477.87 0.5 477.75 1.05 477.64 1.5L477.64 1.5Q475.39 10.45 473.3 16.23 471.19 22 468.3 25.43 465.39 28.85 461.5 28.85L461.5 28.85Q458.34 28.85 456.42 26.83 454.5 24.8 453.69 22.38 452.89 19.95 452.89 18.7L452.89 18.7Q452.89 17.85 453.19 17.2 453.5 16.55 454.09 15.6L454.09 15.6Q454.69 14.8 454.94 14.3L454.94 14.3Q455.89 20.3 457.47 23.08 459.05 25.85 462.3 25.85L462.3 25.85Q464.94 25.85 466.94 23.85 468.94 21.85 470.69 17.32 472.44 12.8 474.34 4.9L474.34 4.9Q476.09-2.5 478.3-12.1L478.3-12.1 479.5-17.3Q475.8-17.2 474.12-16.9 472.44-16.6 471.62-15.83 470.8-15.05 470.14-13.3L470.14-13.3 469.5-13.5Q470.05-16.35 470.69-17.45 471.34-18.55 472.59-18.8L472.59-18.8Q474.39-19.2 479.94-19.35L479.94-19.35Q482.3-29.7 483.72-34.65 485.14-39.6 486.89-42.63 488.64-45.65 491.5-47.55L491.5-47.55Q494.5-49.5 497.34-49.5L497.34-49.5Q499.19-49.5 500.3-48.75 501.39-48 501.39-46.8L501.39-46.8ZM519.39-17.65Q519.89-17.5 519.89-16.65L519.89-16.65Q519.89-15.4 518.89-14.08 517.89-12.75 516.17-11.9 514.44-11.05 512.39-11.05L512.39-11.05Q509.64-11.05 507.54-12.55L507.54-12.55Q507.24-11.1 506.79-9.6L506.79-9.6Q506.64-9.05 506.14-7.08 505.64-5.1 505.44-3.55L505.44-3.55Q505.09-2.75 504.04-1.83 502.99-0.9 501.54-0.25 500.09 0.4 498.69 0.4L498.69 0.4Q497.14 0.4 495.69-0.4 494.24-1.2 493.32-2.55 492.39-3.9 492.39-5.55L492.39-5.55Q493.09-7.65 493.54-9.5 493.99-11.35 494.39-13.25L494.39-13.25 494.89-15.75Q495.14-16.9 496.24-18.03 497.34-19.15 498.92-19.88 500.49-20.6 502.09-20.6L502.09-20.6Q502.69-20.6 503.79-20.4L503.79-20.4Q503.94-21.55 504.32-22 504.69-22.45 505.54-22.45L505.54-22.45Q506.04-22.45 506.69-22.3L506.69-22.3Q506.44-20.9 506.44-19.9L506.44-19.9Q506.44-17 508.19-15 509.94-13 512.94-13L512.94-13Q515.19-13 516.82-14.2 518.44-15.4 519.39-17.65L519.39-17.65ZM503.24-4.4Q503.64-6.4 504.39-8.95L504.39-8.95Q505.39-12.3 505.69-14.35L505.69-14.35Q504.59-15.75 504.19-17.75L504.19-17.75Q504.19-17.95 504.12-18.07 504.04-18.2 503.79-18.25L503.79-18.25Q503.04-18.55 502.09-18.55L502.09-18.55Q500.24-18.55 498.89-17.55 497.54-16.55 497.19-15.15L497.19-15.15Q497.04-14.55 496.09-10.45L496.09-10.45Q495.64-8.05 494.99-5.7L494.99-5.7Q494.99-3.85 496.24-2.83 497.49-1.8 498.89-1.8L498.89-1.8Q500.09-1.8 501.47-2.65 502.84-3.5 503.24-4.4L503.24-4.4ZM538.49-17.85Q538.69-17.8 538.84-17.55 538.99-17.3 538.99-17L538.99-17Q538.99-15.95 538.01-14.98 537.04-14 535.46-13.4 533.89-12.8 532.29-12.8L532.29-12.8Q529.79-12.8 528.01-14.1 526.24-15.4 525.74-17.75L525.74-17.75Q523.49-17.5 521.61-14.9 519.74-12.3 518.99-9.25L518.99-9.25Q518.89-8.75 518.24-6.18 517.59-3.6 516.99-0.1L516.99-0.1Q516.94 0.05 516.86 0.13 516.79 0.2 516.54 0.2L516.54 0.2Q516.19 0.2 515.49-0.1 514.79-0.4 514.79-0.75L514.79-0.75Q514.79-1.45 515.04-2.6L515.04-2.6Q518.09-16.7 518.99-20.05L518.99-20.05Q519.09-20.5 519.21-20.65 519.34-20.8 519.64-20.8L519.64-20.8Q519.84-20.8 520.49-20.48 521.14-20.15 521.54-19.8L521.54-19.8 520.64-16.9 520.34-15.9Q521.49-17.7 522.99-18.8 524.49-19.9 526.19-19.9L526.19-19.9Q526.69-19.9 527.19-19.8 527.69-19.7 527.89-19.55L527.89-19.55Q527.89-17.1 529.16-15.93 530.44-14.75 532.74-14.75L532.74-14.75Q534.79-14.75 536.14-15.45 537.49-16.15 538.49-17.85L538.49-17.85ZM569.54-11.55Q569.59-10 567.66-7.15 565.74-4.3 562.94-2.1 560.14 0.1 557.44 0.1L557.44 0.1Q555.54 0.1 554.31-1.13 553.09-2.35 553.09-4.85L553.09-4.85Q553.09-6.9 553.76-9.47 554.44-12.05 555.59-15.6L555.59-15.6Q555.94-16.55 556.24-17.6L556.24-17.6Q556.24-17.75 556.04-17.88 555.84-18 555.64-18L555.64-18Q554.99-18 553.06-16.13 551.14-14.25 549.16-11.83 547.19-9.4 546.54-8.15L546.54-8.15Q546.04-6.6 544.89-1.65L544.89-1.65Q544.69-0.8 544.56-0.5 544.44-0.2 544.14-0.2L544.14-0.2Q543.69-0.2 543.11-0.75 542.54-1.3 542.54-1.85L542.54-1.85Q542.54-2.4 543.04-4.25L543.04-4.25Q545.14-11.95 546.44-17.6L546.44-17.6Q546.14-18 545.69-18L545.69-18Q544.94-18 543.14-16.15 541.34-14.3 539.39-11.48 537.44-8.65 536.19-5.9L536.19-5.9Q535.44-3.45 534.84-0.25L534.84-0.25Q534.34-0.25 533.54-0.6 532.74-0.95 532.74-1.3L532.74-1.3Q532.74-1.7 533.24-3.55L533.24-3.55 537.49-20.1Q537.59-20.55 537.74-20.75 537.89-20.95 538.19-20.95L538.19-20.95Q538.49-20.95 539.21-20.65 539.94-20.35 540.14-20.15L540.14-20.15 539.69-18.55Q539.54-17.95 539.01-16.07 538.49-14.2 538.04-12.2L538.04-12.2Q539.59-14.9 541.26-16.68 542.94-18.45 544.34-19.28 545.74-20.1 546.49-20.1L546.49-20.1Q547.04-20.1 547.89-19.5 548.74-18.9 548.74-18.5L548.74-18.5Q548.29-15.75 547.44-12.3L547.44-12.3Q549.49-15.1 552.34-17.88 555.19-20.65 556.69-20.65L556.69-20.65Q557.39-20.65 558.19-20.1 558.99-19.55 559.04-18.8L559.04-18.8Q557.44-13.85 556.56-10.65 555.69-7.45 555.69-4.9L555.69-4.9Q555.69-3.4 556.19-2.73 556.69-2.05 557.99-2.05L557.99-2.05Q561.04-2.05 563.89-5.38 566.74-8.7 568.24-13.2L568.24-13.2Q568.79-13.2 569.16-12.7 569.54-12.2 569.54-11.55L569.54-11.55ZM594.63-11.55Q595.28-11.55 595.28-10.25L595.28-10.25Q595.28-7.95 593.26-5.4 591.23-2.85 588.36-1.13 585.48 0.6 583.08 0.6L583.08 0.6Q581.13 0.6 580.08-0.6 579.03-1.8 578.83-3.7L578.83-3.7Q577.58-1.9 575.68-0.75 573.78 0.4 572.28 0.4L572.28 0.4Q570.98 0.4 569.71-0.48 568.43-1.35 567.63-2.63 566.83-3.9 566.78-5.05L566.78-5.05 569.23-15.15Q569.53-16.35 570.76-17.73 571.98-19.1 573.73-20 575.48-20.9 577.28-20.9L577.28-20.9Q579.58-20.9 581.33-19.35L581.33-19.35Q581.78-20.55 582.01-20.85 582.23-21.15 582.68-21.2L582.68-21.2 585.13-21.45 585.28-21.35Q584.28-20.55 583.83-18.85L583.83-18.85Q582.28-13.05 581.71-10.3 581.13-7.55 581.13-5.45L581.13-5.45Q581.13-3.35 581.68-2.38 582.23-1.4 583.53-1.4L583.53-1.4Q585.13-1.4 587.36-2.7 589.58-4 591.58-6.33 593.58-8.65 594.63-11.55L594.63-11.55ZM572.48-1.95Q573.33-1.95 574.56-2.55 575.78-3.15 576.86-4.28 577.93-5.4 578.33-6.85L578.33-6.85 579.28-10.95Q579.48-11.95 579.98-14.18 580.48-16.4 580.78-17.6L580.78-17.6Q579.38-19 577.38-19L577.38-19Q575.83-19 574.58-18.18 573.33-17.35 572.53-16.18 571.73-15 571.53-14.1L571.53-14.1 569.53-5.2Q569.63-3.95 570.53-2.95 571.43-1.95 572.48-1.95L572.48-1.95ZM611.73-8.3Q611.98-7.95 611.98-7.45L611.98-7.45Q611.98-7.05 611.83-6.75 611.68-6.45 611.33-6L611.33-6Q610.03-4.45 607.71-2.93 605.38-1.4 602.83-0.45 600.28 0.5 598.38 0.5L598.38 0.5Q596.23 0.5 594.81-0.83 593.38-2.15 593.38-4.8L593.38-4.8Q593.38-8.15 595.78-17.4L595.78-17.4 590.48-17.2Q590.38-17.25 590.21-17.38 590.03-17.5 589.98-17.6L589.98-17.6Q590.13-17.85 590.53-18.6 590.93-19.35 591.23-19.65L591.23-19.65 596.38-19.6Q598.03-25.7 600.18-32.15L600.18-32.15Q601.08-32.85 602.48-33.68 603.88-34.5 604.18-34.5L604.18-34.5Q604.63-34.3 604.73-33.95L604.73-33.95Q603.83-33.6 603.33-33.02 602.83-32.45 602.33-31.15L602.33-31.15Q600.88-27.45 598.83-19.6L598.83-19.6 611.58-19.55 611.63-18.75Q611.63-18.35 611.48-18.2 611.33-18.05 610.78-18L610.78-18Q610.08-17.95 598.28-17.5L598.28-17.5Q595.98-8.1 595.98-4.95L595.98-4.95Q595.98-3.2 596.83-2.38 597.68-1.55 599.43-1.55L599.43-1.55Q604.53-1.55 611.73-8.3L611.73-8.3ZM614.43 0.35Q612.68 0.35 611.3-0.83 609.93-2 609.93-4.3L609.93-4.3Q610.68-6.7 612.53-14.95L612.53-14.95Q613.43-19 613.63-19.8L613.63-19.8Q614.28-20.9 615.43-20.9L615.43-20.9Q616.18-20.9 616.18-20.4L616.18-20.4Q615.83-19.15 615.2-16.43 614.58-13.7 614.23-12.15L614.23-12.15Q612.88-5.95 612.38-4.2L612.38-4.2Q612.38-3.05 613.05-2.43 613.73-1.8 614.83-1.8L614.83-1.8Q617.33-1.8 619.85-3.58 622.38-5.35 624.3-7.7 626.23-10.05 627.18-11.75L627.18-11.75Q627.48-11.65 627.58-11.43 627.68-11.2 627.68-10.65L627.68-10.65Q627.68-9.9 627.18-9.1L627.18-9.1Q624.48-4.85 621.13-2.25 617.78 0.35 614.43 0.35L614.43 0.35ZM616.73-27.15Q616.03-27.15 615.63-27.63 615.23-28.1 615.23-28.85L615.23-28.85Q615.23-29.85 615.88-30.68 616.53-31.5 617.53-31.5L617.53-31.5Q618.33-31.5 618.7-31 619.08-30.5 619.08-29.8L619.08-29.8Q619.08-28.8 618.4-27.98 617.73-27.15 616.73-27.15L616.73-27.15ZM651.58-17.65Q652.08-17.5 652.08-16.65L652.08-16.65Q652.08-15.4 651.08-14.08 650.08-12.75 648.35-11.9 646.63-11.05 644.58-11.05L644.58-11.05Q641.83-11.05 639.73-12.55L639.73-12.55Q639.43-11.1 638.98-9.6L638.98-9.6Q638.83-9.05 638.33-7.08 637.83-5.1 637.63-3.55L637.63-3.55Q637.28-2.75 636.23-1.83 635.18-0.9 633.73-0.25 632.28 0.4 630.88 0.4L630.88 0.4Q629.33 0.4 627.88-0.4 626.43-1.2 625.5-2.55 624.58-3.9 624.58-5.55L624.58-5.55Q625.28-7.65 625.73-9.5 626.18-11.35 626.58-13.25L626.58-13.25 627.08-15.75Q627.33-16.9 628.43-18.03 629.53-19.15 631.1-19.88 632.68-20.6 634.28-20.6L634.28-20.6Q634.88-20.6 635.98-20.4L635.98-20.4Q636.13-21.55 636.5-22 636.88-22.45 637.73-22.45L637.73-22.45Q638.23-22.45 638.88-22.3L638.88-22.3Q638.63-20.9 638.63-19.9L638.63-19.9Q638.63-17 640.38-15 642.13-13 645.13-13L645.13-13Q647.38-13 649-14.2 650.63-15.4 651.58-17.65L651.58-17.65ZM635.43-4.4Q635.83-6.4 636.58-8.95L636.58-8.95Q637.58-12.3 637.88-14.35L637.88-14.35Q636.78-15.75 636.38-17.75L636.38-17.75Q636.38-17.95 636.3-18.07 636.23-18.2 635.98-18.25L635.98-18.25Q635.23-18.55 634.28-18.55L634.28-18.55Q632.43-18.55 631.08-17.55 629.73-16.55 629.38-15.15L629.38-15.15Q629.23-14.55 628.28-10.45L628.28-10.45Q627.83-8.05 627.18-5.7L627.18-5.7Q627.18-3.85 628.43-2.83 629.68-1.8 631.08-1.8L631.08-1.8Q632.28-1.8 633.65-2.65 635.03-3.5 635.43-4.4L635.43-4.4ZM672.27-12.2Q672.77-12.2 673-11.78 673.22-11.35 673.22-10.8L673.22-10.8Q673.22-9 671.32-6.25 669.42-3.5 666.5-1.45 663.57 0.6 660.72 0.6L660.72 0.6Q658.92 0.6 657.95-0.3 656.97-1.2 656.97-3.05L656.97-3.05Q656.97-5.6 658.37-9.98 659.77-14.35 660.92-17.25L660.92-17.25Q660.72-17.55 660.52-17.55L660.52-17.55Q660.32-17.55 660.07-17.4L660.07-17.4Q659.17-16.85 657.12-14.95 655.07-13.05 653.12-10.95 651.17-8.85 650.47-7.55L650.47-7.55Q649.67-5.4 649.47-4.83 649.27-4.25 649.07-2.95L649.07-2.95 648.62-0.7Q648.57-0.55 648.52-0.33 648.47-0.1 648.4-0.05 648.32 0 648.17 0L648.17 0Q647.72 0 647-0.1 646.27-0.2 646.27-0.4L646.27-0.4Q646.27-1 646.62-2.35 646.97-3.7 647.32-4.8 647.67-5.9 647.87-6.5L647.87-6.5 648.32-7.9Q649.77-12.9 650.3-15.18 650.82-17.45 651.32-20.25L651.32-20.25Q651.37-20.75 652.02-20.75L652.02-20.75Q652.47-20.75 653.05-20.53 653.62-20.3 653.72-19.9L653.72-19.9Q653.52-19 653-16.85 652.47-14.7 651.72-12.1L651.72-12.1Q654.62-15.35 657.75-18 660.87-20.65 661.92-20.65L661.92-20.65Q662.42-20.65 663.12-20.15 663.82-19.65 663.97-19.2L663.97-19.2Q662.37-14.9 660.92-9.83 659.47-4.75 659.47-3.15L659.47-3.15Q659.47-1.4 661.47-1.4L661.47-1.4Q664.42-1.4 667.45-4.7 670.47-8 672.27-12.2L672.27-12.2Z" opacity="1" transform="matrix(1,0,0,1,0,0)" fill="#000000" class="slogan-text-1" data-fill-palette-color="secondary" id="text-1"></path></svg></g></svg></g></svg></g></svg></g><g transform="matrix(1,0,0,1,105.64291498669252,0)"><svg viewBox="0 0 184.23417002661495 184.23417002661495" height="184.23417002661495" width="184.23417002661495"><g><svg></svg></g><g id="icon-0"><svg viewBox="0 0 184.23417002661495 184.23417002661495" height="184.23417002661495" width="184.23417002661495"><g><path d="M0 92.117c0-50.875 41.242-92.117 92.117-92.117 50.875 0 92.117 41.242 92.117 92.117 0 50.875-41.242 92.117-92.117 92.117-50.875 0-92.117-41.242-92.117-92.117zM92.117 176.922c46.836 0 84.805-37.968 84.805-84.805 0-46.836-37.968-84.805-84.805-84.805-46.836 0-84.805 37.968-84.805 84.805 0 46.836 37.968 84.805 84.805 84.805z" data-fill-palette-color="accent" fill="#000000" stroke="transparent"></path><ellipse rx="91.1959141631744" ry="91.1959141631744" cx="92.11708501330747" cy="92.11708501330747" fill="#000000" stroke="transparent" stroke-width="0" fill-opacity="1" data-fill-palette-color="accent"></ellipse></g><g transform="matrix(1,0,0,1,42.89399840702504,45.589011275905506)"><svg viewBox="0 0 98.44617321256487 93.05614747480394" height="93.05614747480394" width="98.44617321256487"><g><svg xmlns="http://www.w3.org/2000/svg" xmlns:xlink="http://www.w3.org/1999/xlink" version="1.1" x="0" y="0" viewBox="0.8 5.742 98.18999999999997 92.814" enable-background="new 0 0 100 100" xml:space="preserve" height="93.05614747480394" width="98.44617321256487" class="icon-cg-0" data-fill-palette-color="quaternary" id="cg-0"><path d="M98.283 86.525V69.064l-0.869-1.185v-6.241l-0.789-1.501v-6.559l-0.87-1.185v-9.638l0.395 0.078-0.868-3.396-0.634-0.158v-2.211l-0.867-0.317-1.265-4.187-1.106 4.423-0.711 0.159 0.079 2.606-0.632 0.238-0.316 3.16 0.476 0.078v3.95l-1.502-1.5v-3.714l-1.107-2.054-0.868 1.896v3.713l-2.133 1.027v-6.4l0.396-0.078-0.63-1.579-0.143-2.051-1.123-1.11-0.044-2.038-0.956-0.601-1.132-4.386-1.024 4.527-0.873 0.601 0.042 1.927-0.868 1.233-0.043 2.529-0.317 1.423 0.712 0.156v7.743l-6.4 0.869v-3.713l-0.396 0.158-0.473-3.635-0.712 4.109-0.631-1.105-0.316 1.659v5.786c-0.81 0.913-1.451 2.058-1.849 3.462-0.605-0.125-1.271-0.18-2.006-0.141-0.419 0.022-0.815 0.077-1.199 0.148-2.133 0.108-4.427 0.677-6.268 1.993-1.047-1.186-2.728-2.055-5.38-2.127v-9.424l-0.636-2.667-0.636 2.667v2.414l-2.287 0.128-0.699-3.05-0.508 3.495h-0.699v-2.034l-0.508-0.508c0 0 0-0.953 0-1.588 0-0.636-0.508-2.097-0.508-2.097s-0.636 1.524-0.636 2.223c0 0.7 0 1.462 0 1.462l-0.571 0.191v2.414l-2.543-0.318v-2.16l-0.507-2.288-0.636 2.352v2.288l-2.923-0.382v-2.161l-0.444-2.097-0.699 2.288v1.97l-2.477-0.445-0.382-2.097v-6.289l-0.571 1.843-0.319-1.97-0.825-2.985-0.953 3.049v2.096l-0.509-2.096-0.127 2.224v3.937l-0.571 1.081-1.906-0.445-0.38-1.843-0.382 1.779-0.507 0.509v-2.858l-0.191-2.034-0.444 1.716-1.081-4.573-0.763 4.763-0.381-2.287v6.162l-0.699 1.017v6.708c-0.832-0.487-1.821-0.779-2.984-0.779v-0.932l-0.508-1.101V49.28l-0.424-1.271v-6.691l0.508-0.423-0.34-0.848v-1.102l-0.761-6.437-0.763 4.913-1.187-0.084L15.156 5.742 10.16 37.929 9.482 37.76l-0.424-5.251-1.355 6.183 0.338 0.34-0.17 0.594L7.618 40.64l0.509 0.593v6.776L7.45 49.957v3.642l-1.017 2.288v5.081H3.044l-1.44 2.626v3.389l-0.762 1.101L0.8 72.021l2.16 0.974 5.082-0.931 8.132 2.795c0 0 0-7.115 0-11.096 0-3.982 2.372-6.48 5.082-6.48 0.991 0 2.021 0.262 2.9 0.844v1.63c-0.04 0.017-0.08 0.036-0.121 0.07-0.222 0.188-1.312 1.258-1.503 1.444-0.19 0.186-0.053 0.32 0.15 0.274 0.079-0.018 0.373-0.08 0.716-0.159l-0.132 0.217v0.282c-0.191 0.045-0.343 0.082-0.411 0.098-0.259 0.062-0.209 0.249-0.012 0.313 0.055 0.019 0.216 0.073 0.422 0.142v0.438c-0.262-0.077-0.484-0.142-0.569-0.166-0.256-0.074-0.304 0.112-0.165 0.268 0.073 0.08 0.397 0.447 0.734 0.808v0.603c-0.368-0.398-0.822-0.881-0.937-1.003-0.183-0.194-0.321-0.058-0.279 0.146 0.042 0.202 0.345 1.799 0.504 2.103 0.129 0.248 0.392 0.233 0.483 0.221-0.013 0.088 0.001 0.182 0.046 0.267 0.042 0.08 0.108 0.136 0.182 0.177v1.099c-0.13 0.057-0.257 0.107-0.339 0.114v6.015l0.339-0.085v5.442l1.144 0.381 1.269-0.191 4.449 1.652v0.763l2.031 0.635 1.335-0.381 0.571 0.191 0.763-0.254 2.689 1.016 1.503 0.062 2.668 0.826v1.652l2.542 0.953 0.062-0.027 1.196 0.462c0 0.001 0 0.011 0 0.011l0.014-0.006 0.014 0.006c0 0 0-0.01 0-0.011l2.578-1.011c0 0 0-18.787 0-21.393 0-2.606 2.405-5.986 5.686-6.174 1.635-0.094 2.858 0.207 3.777 0.712-0.356 0.337-0.684 0.715-0.982 1.129-0.25 0.007-0.435 0.08-0.538 0.342-0.098 0.248-0.413 1.253-0.628 1.945-0.021 0.061-0.039 0.124-0.059 0.187-0.062 0.202-0.113 0.366-0.137 0.441-0.018 0.057-0.014 0.095-0.014 0.136-0.058 0.239-0.109 0.484-0.153 0.738-0.001-0.001-0.003-0.004-0.005-0.005-0.059-0.031-0.215-0.054-0.291 0.083l-0.156 0.283-0.162-0.263c-0.084-0.135-0.239-0.105-0.293-0.07-0.055 0.034-0.142 0.174-0.07 0.291 0.031 0.052 0.094 0.16 0.154 0.266l-0.343-0.006c-0.158-0.002-0.217 0.145-0.217 0.21-0.002 0.063 0.069 0.213 0.208 0.216 0.077 0.001 0.255 0.01 0.401 0.018l-0.206 0.35c-0.078 0.136 0.021 0.26 0.077 0.292 0.056 0.033 0.221 0.045 0.291-0.075 0.043-0.074 0.154-0.25 0.236-0.379 0.07 0.123 0.149 0.264 0.184 0.327 0.007 0.014 0.023 0.013 0.033 0.023-0.009 0.203-0.028 0.396-0.028 0.606v0.584c-0.006-0.023-0.014-0.059-0.018-0.075-0.079-0.336-0.321-0.273-0.407-0.019-0.086 0.256-0.782 2.243-0.801 2.688-0.017 0.363 0.285 0.516 0.396 0.561-0.069 0.092-0.114 0.205-0.121 0.331-0.013 0.321 0.235 0.593 0.558 0.606 0.15 0.007 0.286-0.048 0.394-0.137v1.292c-0.234 0.004-0.763 0.041-0.763 0.041v11.478l0.763-0.229c0 3.906 0 6.891 0 6.891l2.811 1.087c0 0.001 0 0.012 0 0.012l0.016-0.006 0.016 0.006c0 0 0-0.011 0-0.013l2.939-1.151c0 0 0-21.428 0-24.397 0-2.973 2.187-6.455 5.908-6.9 0.342-0.041 0.658-0.061 0.958-0.065-0.021 0.317-0.037 0.641-0.037 0.979v0.211c-0.002 0.02-0.012 0.037-0.012 0.058 0 0.025 0.009 0.049 0.012 0.073v0.357c-0.155 0.079-0.367 0.244-0.367 0.569 0 0.256 0.18 0.977 0.367 1.661v3.174l-0.131-0.002c-0.178-0.004-0.244 0.163-0.245 0.237-0.002 0.073 0.08 0.243 0.236 0.245 0.031 0.001 0.087 0.003 0.14 0.006v3.386c-0.205 0.645-0.397 1.302-0.407 1.546-0.018 0.377 0.262 0.549 0.407 0.615v0.099c-0.052 0.09-0.091 0.188-0.094 0.3-0.006 0.129 0.035 0.244 0.094 0.349v1.828c-0.211 0.014-0.415 0.029-0.415 0.029v12.919l0.415-0.14c0 3.388 0 5.68 0 5.68l2.291 0.699v0.745l2.567 1.033 1.303-0.699 5.051 1.652-0.072 1.252 2.607 1.186 1.737-1.04 3.237 1.12 1.819-1.266v-2.291l5.53-3.969 4.346 0.475 1.105-0.315v-2.45L98.283 86.525zM22.165 62.137c0.001-0.051-0.037-0.166-0.158-0.171l-0.264-0.01c0.039-0.077 0.078-0.152 0.099-0.189 0.051-0.094-0.02-0.198-0.064-0.223-0.044-0.023-0.165-0.043-0.223 0.063l-0.121 0.22-0.126-0.205c-0.063-0.103-0.183-0.079-0.226-0.053-0.042 0.025-0.11 0.133-0.053 0.225 0.024 0.039 0.073 0.123 0.119 0.205l-0.266-0.005c-0.122-0.003-0.167 0.112-0.167 0.161 0 0.05 0.054 0.165 0.161 0.167 0.06 0.001 0.197 0.008 0.311 0.014l-0.159 0.271c-0.061 0.104 0.015 0.198 0.058 0.225 0.043 0.024 0.171 0.034 0.225-0.06 0.034-0.057 0.12-0.193 0.183-0.293 0.054 0.095 0.115 0.205 0.141 0.255 0.049 0.095 0.177 0.091 0.222 0.068 0.043-0.022 0.125-0.114 0.069-0.222l-0.152-0.29c0.089 0 0.179 0.001 0.222 0.002C22.102 62.297 22.163 62.186 22.165 62.137zM17.231 62.57c0.097 0.003 0.187-0.026 0.261-0.078 0.029 0.088 0.134 0.329 0.413 0.333 0.342 0.007 1.906-0.437 2.107-0.49 0.2-0.053 0.262-0.237 0.005-0.313-0.254-0.075-1.717-0.517-2.001-0.578-0.26-0.057-0.392 0.079-0.525 0.306-0.068-0.048-0.153-0.076-0.244-0.077-0.248-0.004-0.453 0.193-0.458 0.44C16.787 62.362 16.984 62.566 17.231 62.57zM22.778 58.059c0.1-0.085 0.157-0.199 0-0.257-0.157-0.056-0.256-0.071-0.256-0.071-0.243-0.071-0.344-0.1-0.329 0.144 0.015 0.242 0.086 0.343 0.213 0.371C22.535 58.273 22.678 58.144 22.778 58.059zM19.67 65.987c0.049-0.084 0.068-0.176 0.06-0.265 0.091 0.017 0.351 0.044 0.493-0.198 0.173-0.296 0.554-1.875 0.605-2.076s-0.08-0.344-0.272-0.159c-0.191 0.186-1.291 1.245-1.484 1.463-0.177 0.197-0.124 0.378 0.009 0.606-0.074 0.037-0.142 0.096-0.186 0.174-0.125 0.214-0.053 0.489 0.16 0.615C19.27 66.272 19.544 66.202 19.67 65.987zM18.134 65.623c0.127 0.109 0.198 0.003 0.224-0.127s0.066-0.316-0.022-0.414c-0.088-0.098-0.21-0.109-0.427-0.002-0.219 0.106-0.145 0.179 0.037 0.354C17.945 65.434 18.007 65.515 18.134 65.623zM21.802 66.397c0.004-0.091-0.019-0.176-0.061-0.248 0.234-0.118 0.378-0.241 0.337-0.504-0.044-0.287-0.394-1.773-0.454-2.034-0.062-0.26-0.248-0.211-0.315-0.013-0.065 0.197-0.604 1.729-0.617 2.071-0.013 0.28 0.22 0.399 0.306 0.435-0.056 0.07-0.09 0.157-0.094 0.254-0.011 0.249 0.182 0.458 0.43 0.47C21.583 66.839 21.792 66.646 21.802 66.397zM20.128 63.033c0.146-0.147 0.103-0.338-0.156-0.272-0.259 0.064-1.74 0.43-2.018 0.52-0.251 0.084-0.297 0.267-0.296 0.529-0.083-0.004-0.169 0.015-0.249 0.058-0.216 0.123-0.291 0.397-0.169 0.613 0.122 0.217 0.397 0.292 0.613 0.171 0.084-0.049 0.148-0.118 0.185-0.201 0.069 0.061 0.282 0.215 0.525 0.077C18.861 64.358 19.982 63.182 20.128 63.033zM22.445 66.223c-0.127 0.034-0.193 0.215-0.243 0.336-0.048 0.123-0.047 0.25 0.118 0.229 0.167-0.022 0.262-0.056 0.262-0.056 0.249-0.049 0.35-0.07 0.225-0.279C22.681 66.244 22.572 66.188 22.445 66.223zM16.915 60.983c0 0-0.034 0.094-0.059 0.258-0.024 0.167 0.103 0.17 0.225 0.124 0.124-0.047 0.304-0.111 0.342-0.238 0.035-0.127-0.019-0.236-0.226-0.364C16.992 60.635 16.969 60.736 16.915 60.983zM18.492 59.343c0.095-0.093 0.103-0.216-0.012-0.429s-0.185-0.138-0.354 0.051c0 0-0.078 0.064-0.181 0.196-0.104 0.131 0.004 0.198 0.135 0.218C18.209 59.399 18.398 59.435 18.492 59.343zM20.35 66.163c-0.017-0.013-0.025-0.038-0.045-0.045-0.028-0.009-0.055 0.006-0.083 0.007-0.008 0.002-0.016 0-0.024 0.002-0.042 0.007-0.085 0.026-0.127 0.06-0.054 0.034-0.106 0.074-0.15 0.108-0.103 0.08-0.165 0.191-0.01 0.257l0.025-0.002c0.046 0.025 0.112 0.046 0.208 0.07 0 0 0.093 0.037 0.257 0.068 0.164 0.03 0.172-0.097 0.13-0.223-0.021-0.06-0.046-0.133-0.08-0.198C20.429 66.216 20.391 66.186 20.35 66.163zM16.961 62.954c-0.243-0.02-0.216 0.081-0.149 0.325 0 0 0.012 0.099 0.067 0.258 0.054 0.158 0.169 0.103 0.257 0.004 0.086-0.098 0.219-0.238 0.192-0.367S17.203 62.973 16.961 62.954zM22.173 61.043c0.157-0.137 1.397-1.188 1.582-1.476 0.152-0.236 0.01-0.455-0.047-0.528 0.084-0.032 0.158-0.091 0.21-0.174 0.136-0.208 0.075-0.484-0.134-0.62-0.208-0.135-0.486-0.075-0.621 0.132-0.05 0.077-0.071 0.162-0.071 0.247-0.263-0.016-0.449 0.019-0.547 0.264-0.107 0.271-0.557 1.73-0.636 1.984C21.831 61.127 22.017 61.181 22.173 61.043zM17.353 59.88c-0.12 0.218-0.038 0.49 0.181 0.609 0.084 0.046 0.178 0.061 0.267 0.051-0.015 0.091-0.033 0.352 0.213 0.485 0.3 0.164 1.893 0.49 2.096 0.536 0.203 0.044 0.341-0.091 0.149-0.275-0.192-0.188-1.287-1.251-1.511-1.438-0.203-0.169-0.383-0.109-0.606 0.031-0.04-0.073-0.101-0.139-0.181-0.181C17.743 59.58 17.47 59.662 17.353 59.88zM19.672 58.372c-0.13-0.212-0.408-0.278-0.62-0.146-0.21 0.13-0.276 0.406-0.146 0.618 0.051 0.083 0.124 0.144 0.207 0.178-0.058 0.071-0.205 0.288-0.058 0.526 0.181 0.292 1.398 1.369 1.551 1.509 0.153 0.14 0.341 0.091 0.268-0.165-0.075-0.256-0.493-1.726-0.595-1.998-0.091-0.247-0.276-0.285-0.541-0.274C19.74 58.536 19.718 58.449 19.672 58.372zM20.719 58.715c0 0.342 0.471 1.898 0.528 2.098 0.058 0.201 0.243 0.257 0.314 0 0.071-0.256 0.484-1.726 0.542-2.011 0.052-0.262-0.085-0.391-0.314-0.52 0.046-0.07 0.072-0.154 0.072-0.244 0-0.249-0.201-0.45-0.449-0.45-0.248 0-0.449 0.201-0.449 0.45 0 0.095 0.031 0.187 0.083 0.259C20.957 58.327 20.719 58.436 20.719 58.715zM20.562 57.874c0.015-0.243-0.086-0.215-0.329-0.144 0 0-0.1 0.016-0.256 0.071-0.157 0.058-0.1 0.172 0 0.257 0.099 0.085 0.243 0.215 0.372 0.187C20.476 58.217 20.549 58.116 20.562 57.874zM52.312 59.562c-0.169-0.274-0.527-0.359-0.802-0.19-0.272 0.169-0.359 0.527-0.188 0.801 0.065 0.107 0.159 0.185 0.266 0.23-0.074 0.094-0.263 0.374-0.071 0.683 0.23 0.379 1.809 1.773 2.007 1.954 0.2 0.183 0.443 0.12 0.347-0.212-0.095-0.331-0.64-2.235-0.771-2.589-0.119-0.321-0.359-0.372-0.7-0.358C52.401 59.771 52.376 59.66 52.312 59.562zM50.786 60.818c0.121-0.119 0.132-0.278-0.018-0.556-0.148-0.276-0.24-0.176-0.459 0.067 0 0-0.1 0.083-0.233 0.254-0.136 0.168 0.005 0.256 0.173 0.282C50.419 60.893 50.663 60.938 50.786 60.818zM53.468 58.914c0.019-0.314-0.111-0.276-0.426-0.186 0 0-0.128 0.019-0.332 0.094-0.204 0.074-0.13 0.222 0 0.332 0.128 0.11 0.314 0.279 0.48 0.241C53.356 59.358 53.449 59.229 53.468 58.914zM49.028 66.261c0.113-0.128 0.282-0.31 0.247-0.478-0.032-0.166-0.162-0.261-0.475-0.286-0.313-0.024-0.28 0.106-0.192 0.423 0 0 0.017 0.13 0.088 0.335C48.764 66.459 48.913 66.389 49.028 66.261zM49.306 61.515c-0.154 0.283-0.048 0.637 0.236 0.79 0.108 0.06 0.229 0.079 0.346 0.065-0.021 0.118-0.044 0.457 0.275 0.629 0.392 0.212 2.453 0.637 2.716 0.695 0.263 0.057 0.443-0.119 0.195-0.359-0.249-0.239-1.669-1.618-1.959-1.86-0.262-0.22-0.495-0.143-0.785 0.04-0.053-0.097-0.131-0.179-0.234-0.234C49.813 61.127 49.459 61.231 49.306 61.515zM49.151 65.002c0.126 0.003 0.241-0.035 0.339-0.102 0.036 0.114 0.171 0.425 0.533 0.433 0.445 0.008 2.472-0.565 2.731-0.636 0.259-0.069 0.338-0.309 0.007-0.406-0.33-0.099-2.226-0.67-2.595-0.75-0.335-0.074-0.506 0.101-0.679 0.397-0.089-0.062-0.2-0.1-0.314-0.102-0.323-0.005-0.588 0.251-0.594 0.572S48.83 64.997 49.151 65.002zM53.353 69.857c-0.03-0.11-0.085-0.18-0.16-0.218-0.02-0.014-0.037-0.031-0.06-0.039-0.127-0.04-0.244-0.007-0.372 0.134-0.044 0.032-0.087 0.065-0.124 0.095-0.133 0.104-0.215 0.249-0.014 0.332l0.031-0.003c0.06 0.034 0.145 0.062 0.271 0.092 0 0 0.119 0.05 0.334 0.089 0.213 0.038 0.224-0.126 0.167-0.288C53.406 69.992 53.381 69.924 53.353 69.857zM53.672 60.005c0 0.444 0.609 2.461 0.684 2.719 0.073 0.259 0.314 0.333 0.407 0 0.092-0.332 0.628-2.236 0.702-2.606 0.068-0.337-0.111-0.506-0.408-0.673 0.061-0.092 0.095-0.2 0.095-0.317 0-0.322-0.263-0.583-0.584-0.583-0.32 0-0.581 0.261-0.581 0.583 0 0.125 0.038 0.241 0.106 0.336C53.979 59.503 53.672 59.642 53.672 60.005zM56.339 59.154c0.129-0.11 0.203-0.258 0-0.332-0.204-0.075-0.333-0.094-0.333-0.094-0.314-0.091-0.444-0.129-0.425 0.186 0.019 0.314 0.11 0.444 0.276 0.481C56.024 59.434 56.209 59.265 56.339 59.154zM52.311 69.43c0.065-0.107 0.089-0.229 0.078-0.344 0.117 0.023 0.454 0.058 0.638-0.255 0.225-0.384 0.718-2.431 0.786-2.691 0.066-0.263-0.104-0.445-0.352-0.206-0.249 0.241-1.674 1.613-1.925 1.896-0.229 0.256-0.159 0.49 0.013 0.785-0.098 0.049-0.183 0.126-0.242 0.227-0.163 0.277-0.069 0.635 0.21 0.797C51.794 69.801 52.15 69.707 52.311 69.43zM48.741 62.945c0 0-0.045 0.122-0.077 0.335-0.031 0.215 0.134 0.221 0.292 0.159 0.161-0.062 0.395-0.144 0.443-0.309 0.045-0.163-0.024-0.307-0.293-0.473C48.839 62.492 48.811 62.624 48.741 62.945zM52.904 65.602c0.188-0.192 0.135-0.438-0.199-0.354-0.337 0.083-2.259 0.556-2.617 0.674-0.326 0.108-0.386 0.346-0.383 0.688-0.109-0.008-0.221 0.016-0.322 0.073-0.28 0.158-0.379 0.516-0.221 0.795 0.159 0.279 0.515 0.377 0.794 0.219 0.109-0.062 0.191-0.154 0.239-0.26 0.091 0.08 0.366 0.279 0.682 0.101C51.262 67.319 52.714 65.794 52.904 65.602zM50.027 68.253c-0.283 0.139-0.188 0.233 0.049 0.461 0 0 0.079 0.104 0.245 0.244 0.164 0.141 0.256 0.003 0.289-0.163 0.032-0.168 0.085-0.412-0.028-0.538C50.469 68.132 50.31 68.114 50.027 68.253zM61.496 64.015c0 0-0.051 0.139-0.088 0.383-0.036 0.244 0.153 0.25 0.333 0.18 0.183-0.068 0.449-0.164 0.501-0.351 0.054-0.186-0.025-0.349-0.329-0.537C61.607 63.501 61.574 63.649 61.496 64.015zM61.963 66.354c0.143 0.004 0.275-0.039 0.385-0.113 0.041 0.128 0.194 0.482 0.608 0.49 0.504 0.009 2.81-0.645 3.105-0.722 0.296-0.08 0.384-0.352 0.008-0.465-0.376-0.111-2.532-0.761-2.95-0.852-0.382-0.084-0.577 0.116-0.772 0.451-0.104-0.07-0.227-0.111-0.36-0.113-0.364-0.008-0.667 0.284-0.673 0.649C61.306 66.047 61.596 66.35 61.963 66.354zM66.872 59.431c0.02-0.357-0.126-0.314-0.483-0.21 0 0-0.148 0.021-0.38 0.105-0.229 0.084-0.146 0.251 0 0.378 0.149 0.127 0.358 0.316 0.549 0.273C66.746 59.936 66.851 59.788 66.872 59.431zM63.82 61.598c0.139-0.136 0.152-0.317-0.018-0.632-0.169-0.316-0.273-0.203-0.522 0.073 0 0-0.114 0.097-0.268 0.29-0.151 0.193 0.009 0.291 0.199 0.322C63.404 61.682 63.682 61.731 63.82 61.598zM62.959 70.053c-0.321 0.158-0.212 0.266 0.057 0.523 0 0 0.089 0.118 0.277 0.278 0.187 0.159 0.292 0.003 0.329-0.186 0.036-0.191 0.098-0.467-0.031-0.612C63.46 69.914 63.28 69.895 62.959 70.053zM66.232 67.037c0.213-0.218 0.151-0.498-0.229-0.402-0.382 0.096-2.567 0.633-2.976 0.768-0.371 0.122-0.438 0.392-0.437 0.781-0.123-0.008-0.252 0.019-0.366 0.085-0.319 0.179-0.43 0.583-0.25 0.902 0.181 0.318 0.585 0.43 0.903 0.251 0.124-0.07 0.217-0.176 0.273-0.297 0.102 0.091 0.413 0.318 0.771 0.113C64.363 68.991 66.015 67.256 66.232 67.037zM66.735 71.863c-0.036-0.12-0.097-0.195-0.182-0.237-0.021-0.014-0.039-0.032-0.062-0.04-0.143-0.046-0.274-0.009-0.42 0.149-0.052 0.037-0.101 0.074-0.144 0.108-0.151 0.121-0.245 0.284-0.015 0.379l0.034-0.003c0.068 0.038 0.166 0.068 0.308 0.104 0 0 0.137 0.058 0.379 0.102 0.243 0.044 0.255-0.144 0.192-0.327C66.802 72.026 66.771 71.943 66.735 71.863zM65.557 71.392c0.072-0.123 0.101-0.26 0.089-0.392 0.134 0.026 0.517 0.065 0.726-0.291 0.256-0.436 0.815-2.763 0.892-3.061 0.076-0.296-0.117-0.507-0.399-0.234s-1.903 1.835-2.188 2.154c-0.262 0.293-0.183 0.56 0.013 0.896-0.11 0.055-0.208 0.143-0.274 0.257-0.186 0.315-0.079 0.723 0.237 0.907C64.967 71.812 65.372 71.707 65.557 71.392zM65.56 60.167c-0.192-0.312-0.601-0.408-0.913-0.216-0.312 0.19-0.407 0.599-0.216 0.91 0.076 0.123 0.182 0.211 0.304 0.262-0.085 0.105-0.301 0.426-0.083 0.777 0.266 0.429 2.058 2.017 2.286 2.224 0.226 0.207 0.501 0.134 0.393-0.242-0.108-0.379-0.726-2.542-0.877-2.945-0.135-0.367-0.408-0.423-0.796-0.406C65.66 60.405 65.629 60.279 65.56 60.167zM62.139 62.389c-0.176 0.321-0.055 0.725 0.268 0.899 0.124 0.066 0.262 0.09 0.395 0.073-0.023 0.134-0.05 0.521 0.312 0.717 0.445 0.24 2.792 0.723 3.091 0.789 0.299 0.067 0.502-0.134 0.22-0.407-0.283-0.273-1.896-1.842-2.227-2.116-0.3-0.25-0.564-0.163-0.894 0.044-0.06-0.109-0.148-0.203-0.267-0.267C62.716 61.947 62.313 62.067 62.139 62.389zM62.104 67.245c-0.037-0.191-0.184-0.298-0.541-0.327-0.356-0.026-0.316 0.122-0.218 0.48 0 0 0.018 0.148 0.098 0.381s0.25 0.151 0.379 0.007C61.949 67.641 62.143 67.435 62.104 67.245zM48.784 85.235l1.609-0.677V70.541c0 0-1.397-1.526-1.609-1.992V85.235zM51.62 84.239l1.652-0.634V71.577c0 0-0.805-0.169-1.652-0.678V84.239zM61.743 89.365l1.608-0.763V72.823c0 0-1.396-1.716-1.608-2.24V89.365zM64.58 88.244l1.652-0.714V73.99c0 0-0.806-0.19-1.652-0.763V88.244zM17.148 65.606v9.337l1.387-0.37v-7.666C17.994 66.517 17.669 66.332 17.148 65.606zM19.383 74.399l1.424-0.347v-6.579c0 0-0.759-0.067-1.424-0.37V74.399zM21.52 67.549v6.278l0.857-0.217-0.042-6.085C22.12 67.525 21.52 67.549 21.52 67.549z" fill="#ffffff" data-fill-palette-color="quaternary"></path></svg></g></svg></g></svg></g></svg></g><g></g></svg></g><defs></defs></svg><rect width="269.82533746066264" height="247.2" fill="none" stroke="none" visibility="hidden"></rect></g></svg></g></svg>